<?xml version="1.0" encoding="UTF-8"?>
<svg width="210mm" height="297mm" version="1.1" viewBox="0 0 210 297" xmlns="http://www.w3.org/2000/svg" xmlns:cc="http://creativecommons.org/ns#" xmlns:dc="http://purl.org/dc/elements/1.1/" xmlns:rdf="http://www.w3.org/1999/02/22-rdf-syntax-ns#">
 <metadata>
  <rdf:RDF>
   <cc:Work rdf:about="">
    <dc:format>image/svg+xml</dc:format>
    <dc:type rdf:resource="http://purl.org/dc/dcmitype/StillImage"/>
    <dc:title/>
   </cc:Work>
  </rdf:RDF>
 </metadata>
 <path d="m18.436 85.231c-1.9436-0.3817-4.3172-1.6645-6.0526-3.2712-7.6454-7.0783-3.5805-20.04 6.7878-21.645l1.8225-0.2821 0.10558-2.4142c0.0806-1.8434 0.24659-2.6847 0.70195-3.5583l0.59636-1.1441-0.54957-5.0644c-0.30226-2.7854-0.72669-6.7313-0.94318-8.7686-0.21649-2.0373-0.50812-4.7162-0.64808-5.9531-1.1145-9.8501-1.403-12.874-1.4261-14.949-0.0238-2.1385 0.0526-2.5375 0.75021-3.9142 0.9106-1.7971 2.5986-3.4461 4.3362-4.2359 0.9509-0.4322 1.7574-0.56229 3.4861-0.56229 2.5949 0 4.0356 0.51636 5.742 2.058l1.047 0.94593 12.547 0.07607c12.429 0.07536 12.558 0.0817 13.764 0.67576 1.9606 0.96608 2.922 2.1697 7.048 8.8239l3.9058 6.299 4.101 0.0158c3.4175 0.0132 4.2826 0.0983 5.1901 0.51042 2.0352 0.92422 2.353 1.6458 3.693 8.3864 0.96122 4.8351 1.3133 6.1498 1.746 6.5194 0.48535 0.41462 1.2452 0.46303 7.2681 0.46303 10.02 0 9.8812-0.10263 11.594 8.599 0.99741 5.0664 1.1029 6.2707 0.65338 7.4573-0.78698 2.0771-2.6004 2.9799-6.0016 2.988l-2.4474 6e-3v3.1056l2.72 0.12097c2.1928 0.0975 3.0095 0.25349 4.2135 0.80472 2.0812 0.95283 3.751 2.5832 4.7743 4.6619 0.76668 1.5574 0.85987 1.9916 0.85987 4.0068s-0.0932 2.4494-0.85987 4.0068c-1.0194 2.0708-2.68 3.6966-4.7823 4.6821l-1.5016 0.7039h-45.784l-1.7467-0.85988c-2.0744-1.0212-3.701-2.6847-4.6763-4.7823-0.58198-1.2517-0.69817-1.8758-0.69817-3.7505s0.11619-2.4988 0.69817-3.7505c0.96694-2.0796 2.604-3.7621 4.6316-4.7603 1.4957-0.73632 2.0367-0.85274 4.4642-0.9607l2.7623-0.12285v-3.1056h-1.1071c-2.2483 0-4.2581-1.5514-4.732-3.6528-0.14876-0.65958 0.15514-4.646 0.95701-12.554l1.175-11.587-2.1468-4.2934c-2.3676-4.735-3.483-6.1189-5.1906-6.4402-3.6825-0.69271-15.311-2.3892-15.445-2.2532-0.0898 0.0916-0.29916 1.4167-0.46526 2.9447-0.59126 5.4386-1.0808 9.9931-1.621 15.081-0.3013 2.8377-0.72947 6.7868-0.95149 8.7758l-0.40367 3.6164 0.61173 1.1461c0.60372 1.1311 0.61275 1.2768 0.68978 11.133l0.078 9.9874 2.6601 2.0145c3.0538 2.3127 3.6509 3.2466 3.6603 5.7259 4e-3 1.1738-0.11509 1.6422-0.52336 2.0505-0.51107 0.51108-0.86163 0.52818-10.253 0.50018-5.3479-0.016-10.246-0.13168-10.885-0.25718zm18.492-2.9995c0-0.53897-0.71249-1.2266-3.175-3.0644-1.5735-1.1742-2.9315-2.3192-3.0179-2.5443s-0.15708-3.3248-0.15708-6.8882v-6.4788l-5.887 0.0843c-5.8569 0.0839-5.8955 0.0883-7.5491 0.85187-3.5806 1.6535-5.8561 5.452-5.5501 9.2649 0.24895 3.1013 2.2721 6.2958 4.8309 7.6278 2.2307 1.1612 2.8051 1.2213 11.84 1.2398 4.7658 0.01 8.6651-0.0321 8.6651-0.093zm65.454-0.21112c2.2738-0.67182 4.3963-3.5822 4.3963-6.0282s-2.1225-5.3564-4.3963-6.0282c-0.81587-0.24105-6.4824-0.32176-22.591-0.32176-16.109 0-21.775 0.0807-22.591 0.32176-1.4533 0.4294-3.6452 2.6212-4.0746 4.0746-0.73272 2.4799-0.21628 4.4572 1.6536 6.3311 0.73253 0.73411 1.7486 1.4661 2.2579 1.6266 1.3869 0.43715 43.871 0.45976 45.345 0.0241zm-45.353-1.861c-3.4721-1.754-3.4721-6.5804 0-8.3344l1.1784-0.59531h43.167l1.1784 0.59531c3.4721 1.754 3.4721 6.5804 0 8.3344-1.1094 0.56047-1.5002 0.59531-6.6786 0.59531-5.1474 0-5.5341-0.0339-6.0294-0.52917-0.29105-0.29104-0.52917-0.76729-0.52917-1.0583s0.23812-0.76729 0.52917-1.0583c0.46033-0.46034 0.88194-0.52917 3.2411-0.52917h2.712v-3.175h-32.015v3.175h10.649c10.297 0 10.667 0.0175 11.179 0.52917 0.29104 0.29104 0.52917 0.76729 0.52917 1.0583s-0.23813 0.76729-0.52917 1.0583c-0.51527 0.51528-0.88194 0.52917-13.967 0.52917-13.41 0-13.44-1e-3 -14.616-0.59531zm3.183-3.1089c0.29104-0.29104 0.52917-0.76729 0.52917-1.0583s-0.23813-0.76729-0.52917-1.0583c-0.29104-0.29105-0.76729-0.52917-1.0583-0.52917s-0.76729 0.23812-1.0583 0.52917c-0.29104 0.29104-0.52916 0.76729-0.52916 1.0583s0.23812 0.76729 0.52916 1.0583c0.29105 0.29104 0.7673 0.52917 1.0583 0.52917s0.76729-0.23813 1.0583-0.52917zm41.275 0c0.29104-0.29104 0.52917-0.76729 0.52917-1.0583s-0.23813-0.76729-0.52917-1.0583c-0.29104-0.29105-0.76729-0.52917-1.0583-0.52917s-0.76729 0.23812-1.0583 0.52917c-0.29105 0.29104-0.52917 0.76729-0.52917 1.0583s0.23812 0.76729 0.52917 1.0583c0.29104 0.29104 0.76729 0.52917 1.0583 0.52917s0.76729-0.23813 1.0583-0.52917zm-7.4083-12.171v-1.5875h-28.575v3.175h28.575zm-63.539-7.0065c-0.0884-2.1266-0.13853-2.2892-0.95828-3.1089-0.74444-0.74436-1.0479-0.86489-2.1777-0.86489s-1.4333 0.12053-2.1777 0.86489c-0.81974 0.81966-0.86986 0.98226-0.95828 3.1089l-0.0933 2.244h6.4586zm71.786 1.8061c0.66062-0.59786 0.62509-1.1082-0.45757-6.5736-0.73723-3.7216-1.0619-4.8637-1.4855-5.2255-0.48527-0.41448-1.2532-0.46363-7.3258-0.46883-10.049-9e-3 -9.7561 0.21625-11.566-8.8867-0.96122-4.8351-1.3133-6.1498-1.746-6.5194-0.4903-0.41884-1.3064-0.46302-8.5532-0.46302-7.2409 0-8.0648 0.0445-8.5686 0.46302-0.51668 0.42917-0.65403 1.4271-1.8785 13.649-1.3207 13.182-1.3454 13.934-0.46996 14.287 0.18356 0.0739 9.6113 0.14386 20.95 0.15535 18.831 0.0191 20.659-0.017 21.101-0.41699zm-39.468-6.4413c-0.29105-0.29104-0.52756-0.67799-0.52559-0.85989 2e-3 -0.1819 0.35845-4.2003 0.79219-8.9297 0.43374-4.7294 0.78932-8.7478 0.79018-8.9297 7.9e-4 -0.1819 0.23967-0.56885 0.53072-0.85989 0.49849-0.49849 0.88194-0.52917 6.6146-0.52917 7.2578 0 6.8493-0.18359 7.4995 3.3702 0.5558 3.0379 0.54966 3.5905-0.0458 4.1294-1.1604 1.0501-2.301 0.36479-2.6826-1.6118-0.59212-3.0664 0.0237-2.7128-4.7237-2.7128h-4.1759l-0.58636 6.5484c-0.32249 3.6016-0.58418 6.8163-0.58153 7.1438l5e-3 0.59531h12.181l-0.12513-0.59531c-0.47868-2.2775-0.6787-3.4974-0.6787-4.1392 0-0.84084 0.71525-1.6155 1.4916-1.6155 1.1192 0 1.3969 0.56635 2.0756 4.2333 0.79714 4.3069 0.79142 4.108 0.13696 4.7625-0.50712 0.50712-0.88194 0.52917-8.9958 0.52917-8.1139 0-8.4887-0.022-8.9958-0.52917zm-33.102-5.1559c0.36195-3.219 0.88761-8.0819 1.6163-14.952 0.30097-2.8377 0.71508-6.7072 0.92024-8.599 0.70741-6.523 0.7248-6.8735 0.40084-8.0766-0.57837-2.1479-2.9982-3.959-5.2898-3.959s-4.7115 1.8111-5.2898 3.959c-0.32396 1.2031-0.30656 1.5535 0.40085 8.0766 0.20516 1.8918 0.61927 5.7613 0.92024 8.599 0.72872 6.8706 1.2544 11.733 1.6163 14.952l0.29789 2.6493h4.1091zm-4.3576-24.964c-0.59352-0.2777-1.3309-0.82497-1.6386-1.2162-3.0302-3.8522 0.9485-9.2868 5.4285-7.4149 1.312 0.5482 1.9021 1.1123 2.4801 2.3712 1.8208 3.965-2.3262 8.1053-6.2701 6.2599zm3.0635-3.2172c0.29104-0.29104 0.52917-0.76729 0.52917-1.0583 0-0.29105-0.23813-0.7673-0.52917-1.0583s-0.76729-0.52916-1.0583-0.52916-0.76729 0.23812-1.0583 0.52916c-0.29104 0.29104-0.52916 0.76729-0.52916 1.0583 0 0.29104 0.23812 0.76729 0.52916 1.0583 0.29105 0.29104 0.7673 0.52917 1.0583 0.52917s0.76729-0.23813 1.0583-0.52917zm33.395 8.8776c0.6429-0.26856 1.8116-0.41091 3.3734-0.41091 1.3144 0 2.3857-0.0893 2.3807-0.19844-5e-3 -0.10914-1.5826-2.691-3.5057-5.7374-3.1171-4.9376-3.6233-5.6054-4.6628-6.1516-1.1657-0.61244-1.1696-0.61263-12.365-0.61263h-11.199l0.1623 1.6536c0.0893 0.90951 0.23627 1.7241 0.32668 1.8103 0.0904 0.0861 3.773 0.70757 8.1835 1.381 10.605 1.6192 10.916 1.7838 13.616 7.2134l1.3662 2.7471 0.67007-0.64181c0.36854-0.35299 1.1127-0.82672 1.6538-1.0527z" stroke-width=".26458"/>
</svg>
