<?xml version='1.0' encoding='ASCII' standalone='yes'?>
<svg xmlns="http://www.w3.org/2000/svg" id="a" viewBox="0 0 400 400" width="60" height="60">
  <defs>
    <style>.b,.c{fill:#fff;}.d{fill:#243e90;}.c{stroke:#243e90;stroke-linejoin:round;stroke-width:29.9px;}</style>
  </defs>
  <path class="b" d="M200,14.95c102.47,0,185.83,83.36,185.83,185.82s-83.36,185.83-185.83,185.83S14.17,303.24,14.17,200.77,97.54,14.95,200,14.95m0-11C91.47,3.95,3.17,92.24,3.17,200.77s88.29,196.83,196.82,196.83,196.83-88.3,196.83-196.83S308.53,3.95,200,3.95h0Z"/>
  <circle class="c" cx="200" cy="200" r="170.87"/>
  <path class="d" d="M332.59,208l-21.56-49.49c-.7-1.61-2.28-2.64-4.03-2.64h-42.6c-1.39,0-2.51,1.13-2.51,2.51v66.97c0,1.61-1.3,2.91-2.91,2.91h-40.45v.75c20.59-1.68,36.77,10.95,36.77-10.06v-29.85c0-22.13-17.94-48.32-40.06-48.32h-21.43c-.04-9.92-8.12-17.97-18.04-17.97h-24.54c-9.93,0-18,8.06-18.04,17.97h-21.43c-22.13,0-40.06,26.19-40.06,48.32v33.73c0,19.86,14.46,2.61,33.42,5.78v-.34h-31.62c-1,0-1.81,.81-1.81,1.81v14.19c0,1,.81,1.81,1.81,1.81h6.1c-1.29,3.34-1.81,7.07-1.36,10.94,1.3,11.11,10.73,19.77,21.9,20.18,8.8,.32,16.54-4.3,20.65-11.31,3.97,6.78,11.34,11.33,19.77,11.33,11.77,0,21.48-8.87,22.77-20.3h99.78c1.29,11.43,11,20.3,22.77,20.3s21.48-8.87,22.77-20.3h22.52c1.28,0,2.32-1.04,2.32-2.32v-42.27c0-1.48-.31-2.95-.9-4.3Zm-181.37-76.2h24.54c4.96,0,9,4.02,9.04,8.97h-42.63c.04-4.95,4.08-8.97,9.04-8.97Zm131.56,68.97v-20.9h28.64l8.52,20.9h-37.16Z"/>
  <circle class="b" cx="100.66" cy="254.76" r="10.44"/>
  <circle class="b" cx="286.29" cy="254.76" r="10.44"/>
  <circle class="b" cx="141.17" cy="254.76" r="10.44"/>
</svg>
